<svg width="79" height="79" viewBox="0 0 79 79" fill="none" xmlns="http://www.w3.org/2000/svg">
<path d="M39.5 6.58334C21.3629 6.58334 6.58334 21.3629 6.58334 39.5C6.58334 57.6371 21.3629 72.4167 39.5 72.4167C57.6371 72.4167 72.4167 57.6371 72.4167 39.5C72.4167 21.3629 57.6371 6.58334 39.5 6.58334ZM39.5 65.8333C24.9838 65.8333 13.1667 54.0163 13.1667 39.5C13.1667 28.2754 20.2438 18.6638 30.1846 14.9113C31.5013 15.1417 33.3117 15.0758 34.8258 14.6479C36.8667 14.0883 39.3683 14.0883 40.3888 14.6479C41.4092 15.2075 43.6146 16.0304 45.2604 16.4583C46.9063 16.8863 48.5521 17.3471 48.8813 17.4788C49.2104 17.6104 49.0458 18.17 48.5192 18.6967C47.9925 19.2233 46.1163 19.4208 44.3717 19.0917C42.6271 18.7625 40.5204 18.565 39.6317 18.6638C38.7429 18.7625 37.7554 18.2688 37.4263 17.5775C37.0971 16.8863 35.7804 16.59 34.5625 16.8863C33.3446 17.1825 31.4354 18.0713 30.3163 18.8283C29.23 19.5854 26.8271 21.3958 24.9838 22.8771C23.1733 24.3583 21.5275 26.7283 21.3958 28.1767C21.2313 29.625 22.12 31.9292 23.3379 33.2788C24.5558 34.6613 27.3867 35.7146 29.6579 35.6158C31.9292 35.5171 34.1675 36.3729 34.7271 37.4592C35.2538 38.5783 36.2742 40.8825 36.9983 42.5613C37.7225 44.2729 38.0846 46.3796 37.7883 47.2354C37.4921 48.1242 38.2821 51.0867 39.5 53.8188C40.7179 56.5838 43.1538 58.5258 44.8983 58.1308C46.6429 57.7688 49.6054 55.0038 51.4488 52.0413C53.2921 49.0788 54.8063 45.1617 54.8063 43.3513C54.8063 41.5408 55.8925 39.0721 57.2421 37.8542C58.5917 36.6363 60.0071 34.5296 60.3692 33.18C60.7313 31.8304 59.8425 30.7771 58.3942 30.8429C56.9129 30.9088 54.4113 28.9667 52.8313 26.4979C51.2183 24.0621 50.0992 21.9554 50.2638 21.8238C50.4613 21.6921 52.4363 23.2063 54.6417 25.1813C56.8471 27.1563 59.5133 28.44 60.5667 28.0121C61.225 27.7488 61.9821 27.255 62.6404 26.7613C64.7142 30.5138 65.8992 34.8258 65.8992 39.4013C65.8992 53.9175 54.0821 65.7346 39.5658 65.7346L39.5 65.8333Z" fill="#068927"/>
<path d="M57.9004 47.5975C56.9458 48.4204 55.9583 50.165 55.7279 51.4487C55.4975 52.7654 55.8925 53.8846 56.5837 53.9504C57.275 54.0162 58.46 52.5679 59.25 50.7575C60.04 48.9471 60.435 47.1696 60.1717 46.7746C59.8754 46.4125 58.855 46.7746 57.9004 47.5646V47.5975Z" fill="#068927"/>
</svg>
